<svg xmlns="http://www.w3.org/2000/svg" viewBox="0 0 64 64">
  <circle cx="32" cy="32" r="30" fill="#f5f0e1" stroke="#8B1A1A" stroke-width="3"/>
  <path d="M22 8 C20 14, 19 20, 20 26 C21 32, 23 38, 22 44 C21 50, 20 54, 22 58" fill="none" stroke="#8B1A1A" stroke-width="2.5" stroke-linecap="round"/>
  <path d="M42 8 C44 14, 45 20, 44 26 C43 32, 41 38, 42 44 C43 50, 44 54, 42 58" fill="none" stroke="#8B1A1A" stroke-width="2.5" stroke-linecap="round"/>
  <line x1="21" y1="12" x2="18" y2="10" stroke="#8B1A1A" stroke-width="1.5" stroke-linecap="round"/>
  <line x1="20" y1="18" x2="16" y2="17" stroke="#8B1A1A" stroke-width="1.5" stroke-linecap="round"/>
  <line x1="20" y1="24" x2="16" y2="24" stroke="#8B1A1A" stroke-width="1.5" stroke-linecap="round"/>
  <line x1="21" y1="30" x2="17" y2="31" stroke="#8B1A1A" stroke-width="1.5" stroke-linecap="round"/>
  <line x1="22" y1="36" x2="18" y2="37" stroke="#8B1A1A" stroke-width="1.5" stroke-linecap="round"/>
  <line x1="21" y1="42" x2="17" y2="42" stroke="#8B1A1A" stroke-width="1.5" stroke-linecap="round"/>
  <line x1="21" y1="48" x2="17" y2="49" stroke="#8B1A1A" stroke-width="1.5" stroke-linecap="round"/>
  <line x1="22" y1="54" x2="19" y2="56" stroke="#8B1A1A" stroke-width="1.5" stroke-linecap="round"/>
  <line x1="43" y1="12" x2="46" y2="10" stroke="#8B1A1A" stroke-width="1.5" stroke-linecap="round"/>
  <line x1="44" y1="18" x2="48" y2="17" stroke="#8B1A1A" stroke-width="1.5" stroke-linecap="round"/>
  <line x1="44" y1="24" x2="48" y2="24" stroke="#8B1A1A" stroke-width="1.5" stroke-linecap="round"/>
  <line x1="43" y1="30" x2="47" y2="31" stroke="#8B1A1A" stroke-width="1.5" stroke-linecap="round"/>
  <line x1="42" y1="36" x2="46" y2="37" stroke="#8B1A1A" stroke-width="1.5" stroke-linecap="round"/>
  <line x1="43" y1="42" x2="47" y2="42" stroke="#8B1A1A" stroke-width="1.5" stroke-linecap="round"/>
  <line x1="43" y1="48" x2="47" y2="49" stroke="#8B1A1A" stroke-width="1.5" stroke-linecap="round"/>
  <line x1="42" y1="54" x2="45" y2="56" stroke="#8B1A1A" stroke-width="1.5" stroke-linecap="round"/>
</svg>